<?xml version="1.0" standalone="no"?>
<!DOCTYPE svg PUBLIC "-//W3C//DTD SVG 20010904//EN"
 "http://www.w3.org/TR/2001/REC-SVG-20010904/DTD/svg10.dtd">
<svg version="1.0" xmlns="http://www.w3.org/2000/svg"
 width="512.000000pt" height="512.000000pt" viewBox="0 0 512.000000 512.000000"
 preserveAspectRatio="xMidYMid meet">

<g transform="translate(0.000000,512.000000) scale(0.100000,-0.100000)"
fill="#1a1a1a" stroke="none">
<path d="M2518 4701 c-15 -5 -37 -16 -50 -24 -15 -11 -131 -232 -338 -644
-295 -587 -317 -629 -350 -645 -22 -10 -273 -51 -694 -112 -443 -64 -671 -102
-695 -113 -41 -20 -81 -88 -81 -138 0 -16 10 -46 23 -67 12 -20 233 -242 492
-493 258 -251 478 -469 487 -484 11 -15 18 -45 18 -74 0 -27 -50 -337 -111
-690 -75 -436 -108 -653 -104 -677 15 -83 108 -144 183 -122 20 7 298 150 617
319 l580 307 65 0 65 0 580 -307 c319 -169 597 -312 617 -319 75 -22 168 39
183 122 4 24 -29 241 -104 677 -61 353 -111 663 -111 690 0 29 7 59 18 74 9
15 229 233 487 484 259 251 480 473 492 493 13 21 23 51 23 67 0 50 -40 118
-81 138 -24 11 -252 49 -695 113 -421 61 -672 102 -694 112 -33 16 -55 58
-350 646 -337 673 -328 657 -410 670 -19 3 -47 1 -62 -3z"/>
</g>
</svg>
